<svg id="Layer_1" data-name="Layer 1" xmlns="http://www.w3.org/2000/svg" width="169.76mm" height="167.96mm" viewBox="0 0 481.2 476.12"><defs><style>.cls-1{fill:#414b5a;}.cls-2{fill:#fff;}</style></defs><title>se_video</title><circle class="cls-1" cx="237.31" cy="237.31" r="226.87"/><path class="cls-2" d="M54.76,263.2a31.83,31.83,0,0,1-12.71-2.52V250.59h4.87v6.66a24,24,0,0,0,8.29,1.18q4.95,0,7.7-2.3a8.59,8.59,0,0,0,2-9.83,8.69,8.69,0,0,0-2.08-2.61,14.54,14.54,0,0,0-3.29-2.07q-2-.94-4.5-1.94t-4.82-1.94a18.84,18.84,0,0,1-4.33-2.57,11.77,11.77,0,0,1-3.15-3.87,12,12,0,0,1-1.22-5.59,11.6,11.6,0,0,1,4.33-9.42q4.32-3.56,11.71-3.56a26.28,26.28,0,0,1,11.9,2.71v9.91H64.58v-6.49a19.35,19.35,0,0,0-7.48-1.35c-3.3,0-5.8.78-7.48,2.34a7.39,7.39,0,0,0-2.52,5.59,7,7,0,0,0,.76,3.38A7.92,7.92,0,0,0,50,231.3a14.14,14.14,0,0,0,3.42,1.89L58,235c1.68.67,3.32,1.37,4.91,2.12a19,19,0,0,1,4.24,2.71,11.91,11.91,0,0,1,3,3.87,13.19,13.19,0,0,1,1.13,5.81,12.34,12.34,0,0,1-4.46,10C63.82,262,59.8,263.2,54.76,263.2Z"/><path class="cls-2" d="M102.79,255.54v4.87a19.61,19.61,0,0,1-10.54,2.79q-7.12,0-11.13-4.77t-4-13.34q0-8.84,4.23-13.84a13.38,13.38,0,0,1,10.64-5,10.27,10.27,0,0,1,8.47,4.15q3.24,4.14,3.24,11.8V245h-21q.18,6.3,2.47,9.82c1.54,2.34,4,3.58,7.35,3.7A18.73,18.73,0,0,0,102.79,255.54Zm-4.5-14.87q0-5.13-1.9-7.52a6.39,6.39,0,0,0-5.31-2.39,7.21,7.21,0,0,0-5.59,2.48q-2.25,2.47-2.7,7.43Z"/><path class="cls-2" d="M139.56,262.75h-5.13L124,231.66h-4v-4.51h13.51v4.51h-4l7.84,24.15h.18l8.11-24.15h-4v-4.51h13.51v4.51h-4.5Z"/><path class="cls-2" d="M157.77,257.8h4.5V231.66h-4.5v-4.51h9.91V257.8h4.51v4.5H157.77Zm3-40.2a4,4,0,0,1,1-2.93,4.36,4.36,0,0,1,5.63,0,3.64,3.64,0,0,1,1.08,2.75,3.75,3.75,0,0,1-1.08,2.84,4,4,0,0,1-2.88,1,3.71,3.71,0,0,1-2.75-1A3.61,3.61,0,0,1,160.74,217.6Z"/><path class="cls-2" d="M194.72,212.73v-4.5h10.81V257.8H210v4.5H200.4l-.28-3.06-.18-.09a11.91,11.91,0,0,1-9,4.05,11.42,11.42,0,0,1-9.73-4.95q-3.62-5-3.61-13,0-8.47,4.33-13.75a13.8,13.8,0,0,1,11.18-5.27,15.86,15.86,0,0,1,6.84,1.62l.18-.09V212.73Zm5.4,19.29a18.94,18.94,0,0,0-6.75-1.26q-5.15,0-7.62,3.38t-2.48,10.5q0,6.84,2.21,10.45a7.41,7.41,0,0,0,6.8,3.61,10.32,10.32,0,0,0,7.84-3.61Z"/><path class="cls-2" d="M240.68,255.54v4.87a19.63,19.63,0,0,1-10.54,2.79q-7.12,0-11.13-4.77t-4-13.34q0-8.84,4.24-13.84a13.36,13.36,0,0,1,10.63-5,10.29,10.29,0,0,1,8.48,4.15q3.24,4.14,3.24,11.8V245h-21q.18,6.3,2.48,9.82c1.53,2.34,4,3.58,7.35,3.7A18.73,18.73,0,0,0,240.68,255.54Zm-4.51-14.87q0-5.13-1.89-7.52a6.4,6.4,0,0,0-5.32-2.39,7.21,7.21,0,0,0-5.58,2.48q-2.26,2.47-2.71,7.43Z"/><path class="cls-2" d="M247.44,244.91q0-8.57,4.19-13.61a13.19,13.19,0,0,1,10.59-5.05,12.57,12.57,0,0,1,10.23,4.69q3.82,4.68,3.83,13.16,0,8.64-4.06,13.88a12.82,12.82,0,0,1-10.63,5.22,12.3,12.3,0,0,1-10.32-5Q247.43,253.21,247.44,244.91Zm5.68-.81q0,7.11,2.29,10.86A7.35,7.35,0,0,0,262,258.7a7.13,7.13,0,0,0,6.31-3.47c1.5-2.31,2.25-5.85,2.25-10.59q0-13.87-8.83-13.88a7.36,7.36,0,0,0-6.45,3.2Q253.12,237.16,253.12,244.1Z"/><path class="cls-2" d="M308.27,255.54v4.87a19.61,19.61,0,0,1-10.54,2.79q-7.12,0-11.13-4.77t-4-13.34q0-8.84,4.23-13.84a13.38,13.38,0,0,1,10.64-5,10.27,10.27,0,0,1,8.47,4.15q3.24,4.14,3.24,11.8V245h-21q.18,6.3,2.48,9.82c1.54,2.34,4,3.58,7.35,3.7A18.73,18.73,0,0,0,308.27,255.54Zm-4.5-14.87c0-3.42-.64-5.93-1.9-7.52a6.39,6.39,0,0,0-5.31-2.39,7.21,7.21,0,0,0-5.59,2.48c-1.5,1.65-2.41,4.13-2.71,7.43Z"/><path class="cls-2" d="M314.58,257.8h4.51V231.66h-4.51v-4.51h9.64l.27,5h.18a12.84,12.84,0,0,1,3.79-4.24,9.85,9.85,0,0,1,6.85-1.17v5.68a14.19,14.19,0,0,0-2.79-.27,8.4,8.4,0,0,0-4.56,1.22,10.83,10.83,0,0,0-3.47,3.92V257.8h5.41v4.5H314.58Z"/><path class="cls-2" d="M356,212.73h-4.51v-4.5h9.91V231.3h.09a15.05,15.05,0,0,1,11.09-5.05c3,0,5.2.86,6.58,2.57s2.07,4.13,2.07,7.26V257.8h4.51v4.5H372.26v-4.5h3.6v-21c0-2.41-.42-4-1.26-4.82a4.81,4.81,0,0,0-3.51-1.22q-5.23,0-9.65,5.14v21.9h3.61v4.5H351.53v-4.5H356Z"/><path class="cls-2" d="M416.42,255.54v4.87a19.64,19.64,0,0,1-10.55,2.79q-7.11,0-11.13-4.77t-4-13.34q0-8.84,4.24-13.84a13.36,13.36,0,0,1,10.63-5,10.29,10.29,0,0,1,8.48,4.15q3.24,4.14,3.24,11.8V245h-21q.18,6.3,2.48,9.82c1.53,2.34,4,3.58,7.35,3.7A18.75,18.75,0,0,0,416.42,255.54Zm-4.51-14.87q0-5.13-1.89-7.52a6.4,6.4,0,0,0-5.32-2.39,7.21,7.21,0,0,0-5.58,2.48q-2.26,2.47-2.71,7.43Z"/><path class="cls-2" d="M422.73,257.8h4.5V231.66h-4.5v-4.51h9.64l.27,5h.18a12.63,12.63,0,0,1,3.79-4.24,9.84,9.84,0,0,1,6.85-1.17v5.68a14.3,14.3,0,0,0-2.8-.27,8.39,8.39,0,0,0-4.55,1.22,10.74,10.74,0,0,0-3.47,3.92V257.8h5.41v4.5H422.73Z"/></svg>
