<svg id="Layer_1" data-name="Layer 1" xmlns="http://www.w3.org/2000/svg" width="180.07mm" height="76.35mm" viewBox="0 0 510.45 216.42"><defs><style>.cls-1,.cls-2{fill:#414b5a;}.cls-1{opacity:0.6;}.cls-3{fill:#fff;}</style></defs><title>tekstboks</title><rect class="cls-1" x="82.09" width="428.36" height="216.42"/><rect class="cls-2" width="82.09" height="216.42"/><path class="cls-3" d="M105.68,50V47.58h1.83v4.15H95.07V50h2.07V34.79H95.07V33.06h12.1v4.15h-1.84V34.79H99.21v6.57h3.46V39.63h1.73v5.53h-1.73V43.09H99.21V50Z"/><path class="cls-3" d="M109.58,50h1.73V40h-1.73V38.25h3.67l.1,1.8h0a5.56,5.56,0,0,1,4.28-2.15,3,3,0,0,1,2.53,1,4.32,4.32,0,0,1,.79,2.78V50h1.73v1.73h-5.18V50h1.38V42a2.56,2.56,0,0,0-.49-1.85,1.85,1.85,0,0,0-1.34-.47,4.76,4.76,0,0,0-3.7,2.15V50h1.38v1.73h-5.19Z"/><path class="cls-3" d="M139.31,51.21a7.66,7.66,0,0,1-3.63.87,5.66,5.66,0,0,1-4.42-1.8,7.45,7.45,0,0,1-1.63-5.15,7.7,7.7,0,0,1,1.71-5.31,5.7,5.7,0,0,1,4.45-1.92,7.91,7.91,0,0,1,3.52.8v3.35h-1.83V39.94a5.11,5.11,0,0,0-1.87-.31,3.38,3.38,0,0,0-2.87,1.23,6.47,6.47,0,0,0-.93,3.89,7.09,7.09,0,0,0,1,4.18,3.41,3.41,0,0,0,2.91,1.35,7.48,7.48,0,0,0,3.59-.93Z"/><path class="cls-3" d="M152.45,40,148,52.6c-.28.8-.57,1.54-.88,2.21A8.16,8.16,0,0,1,146,56.55a4,4,0,0,1-1.44,1.13,4.74,4.74,0,0,1-2,.38,7.42,7.42,0,0,1-1.24-.11v-1.9a8,8,0,0,0,1.28.11,4.19,4.19,0,0,0,1-.12,2.35,2.35,0,0,0,.88-.49,4.35,4.35,0,0,0,.86-1.21,18.23,18.23,0,0,0,1-2.44h-.17l-4-11.92H140.7V38.25h5.18V40h-1.52l3,9.26h.07L150.58,40H149V38.25h5.19V40Z"/><path class="cls-3" d="M155.21,50h1.73V32.72h-1.73V31H159V50h1.38v1.73h-5.19Zm6.92-11.75h5.18V40h-1.83l-3.94,4.18L166.07,50h1.59v1.73H162.3V50h1.28l0-.07-4.25-5.56,4-4.39h-1.28Z"/><path class="cls-3" d="M178.72,49.14V51a7.54,7.54,0,0,1-4,1.07,5.23,5.23,0,0,1-4.27-1.84,7.68,7.68,0,0,1-1.54-5.11,8,8,0,0,1,1.62-5.31,5.13,5.13,0,0,1,4.08-1.92,3.93,3.93,0,0,1,3.25,1.59A7.2,7.2,0,0,1,179.07,44v1.07H171a7.25,7.25,0,0,0,1,3.77,3.29,3.29,0,0,0,2.82,1.42A7.21,7.21,0,0,0,178.72,49.14ZM177,43.43a4.65,4.65,0,0,0-.72-2.88,2.48,2.48,0,0,0-2-.92,2.8,2.8,0,0,0-2.15.95,4.83,4.83,0,0,0-1,2.85Z"/><path class="cls-3" d="M181.14,50h1.73V32.72h-1.73V31h3.8V50h1.73v1.73h-5.53Z"/><path class="cls-3" d="M189.78,32.72h-1.73V31h3.81v8.85h0a5.76,5.76,0,0,1,4.25-1.94,3.06,3.06,0,0,1,2.53,1,4.32,4.32,0,0,1,.79,2.78V50h1.73v1.73H196V50h1.39V42a2.61,2.61,0,0,0-.49-1.85,1.86,1.86,0,0,0-1.35-.47,4.86,4.86,0,0,0-3.69,2V50h1.38v1.73h-5.19V50h1.73Z"/><path class="cls-3" d="M205.51,56.88A3.06,3.06,0,0,1,202.85,58a6.24,6.24,0,0,1-1-.07V56.26a5.41,5.41,0,0,0,.59,0,1.64,1.64,0,0,0,1.45-.55,3.73,3.73,0,0,0,.38-2V40h-1.73V38.25h3.8V53.43A5.58,5.58,0,0,1,205.51,56.88Zm-1.8-22.29a1.51,1.51,0,0,1,.4-1.13,1.49,1.49,0,0,1,1.09-.4,1.51,1.51,0,0,1,1.07.4,1.39,1.39,0,0,1,.41,1.06,1.43,1.43,0,0,1-.41,1.09,1.57,1.57,0,0,1-1.11.39,1.43,1.43,0,0,1-1-.39A1.38,1.38,0,0,1,203.71,34.59Z"/><path class="cls-3" d="M219.16,49.14V51a7.54,7.54,0,0,1-4,1.07,5.26,5.26,0,0,1-4.27-1.84,7.68,7.68,0,0,1-1.54-5.11,7.93,7.93,0,0,1,1.63-5.31A5.11,5.11,0,0,1,215,37.9a3.91,3.91,0,0,1,3.24,1.59A7.2,7.2,0,0,1,219.51,44v1.07h-8.06a7.25,7.25,0,0,0,1,3.77,3.26,3.26,0,0,0,2.81,1.42A7.19,7.19,0,0,0,219.16,49.14Zm-1.72-5.71a4.65,4.65,0,0,0-.73-2.88,2.45,2.45,0,0,0-2-.92,2.78,2.78,0,0,0-2.14.95,4.77,4.77,0,0,0-1,2.85Z"/><path class="cls-3" d="M221.58,50h1.73V32.72h-1.73V31h3.81V50h1.72v1.73h-5.53Z"/><path class="cls-3" d="M228.84,50h1.73V40h-1.73V38.25h3.67l.1,1.8h0a5.4,5.4,0,0,1,4.18-2.15,2.73,2.73,0,0,1,3,2.18h.06a5.56,5.56,0,0,1,4.29-2.18,3,3,0,0,1,2.52,1,4.32,4.32,0,0,1,.8,2.78V50h1.73v1.73h-5.19V50h1.39V42A2.61,2.61,0,0,0,245,40.1a1.86,1.86,0,0,0-1.35-.47,4.69,4.69,0,0,0-3.52,1.94V50h1.38v1.73h-4.84V50H238V42a2.68,2.68,0,0,0-.46-1.85,1.77,1.77,0,0,0-1.3-.47,4.56,4.56,0,0,0-3.59,2.15V50H234v1.73h-5.19Z"/><path class="cls-3" d="M255.8,50h1.73V40H255.8V38.25h3.67l.1,1.8h0a5.4,5.4,0,0,1,4.18-2.15,2.73,2.73,0,0,1,3,2.18h.07a5.53,5.53,0,0,1,4.28-2.18,3.06,3.06,0,0,1,2.53,1,4.32,4.32,0,0,1,.79,2.78V50h1.73v1.73H271V50h1.39V42a2.56,2.56,0,0,0-.49-1.85,1.85,1.85,0,0,0-1.34-.47A4.7,4.7,0,0,0,267,41.57V50h1.38v1.73h-4.84V50H265V42a2.68,2.68,0,0,0-.47-1.85,1.75,1.75,0,0,0-1.3-.47,4.56,4.56,0,0,0-3.59,2.15V50H261v1.73H255.8Z"/><path class="cls-3" d="M277.58,50h1.73V40h-1.73V38.25h3.81V50h1.72v1.73h-5.53Zm1.14-15.41a1.56,1.56,0,0,1,.4-1.13,1.51,1.51,0,0,1,1.09-.4,1.49,1.49,0,0,1,1.07.4,1.4,1.4,0,0,1,.42,1.06,1.44,1.44,0,0,1-.42,1.09,1.52,1.52,0,0,1-1.1.39,1.46,1.46,0,0,1-1.06-.39A1.42,1.42,0,0,1,278.72,34.59Z"/><path class="cls-3" d="M284.84,50h1.73V40h-1.73V38.25h3.67l.1,1.8h0a5.59,5.59,0,0,1,4.29-2.15,3,3,0,0,1,2.52,1,4.32,4.32,0,0,1,.8,2.78V50H298v1.73h-5.19V50h1.39V42a2.61,2.61,0,0,0-.49-1.85,1.86,1.86,0,0,0-1.35-.47,4.78,4.78,0,0,0-3.7,2.15V50H290v1.73h-5.19Z"/><path class="cls-3" d="M306.27,32.72V31h4.15V50h1.73v1.73h-3.7l-.1-1.17-.07,0a4.57,4.57,0,0,1-3.46,1.56,4.39,4.39,0,0,1-3.73-1.9,8.29,8.29,0,0,1-1.38-5,8,8,0,0,1,1.65-5.27,5.31,5.31,0,0,1,4.29-2,6,6,0,0,1,2.63.63l.07,0V32.72Zm2.08,7.4a7.17,7.17,0,0,0-2.6-.49,3.38,3.38,0,0,0-2.92,1.3,6.88,6.88,0,0,0-.95,4,7.82,7.82,0,0,0,.85,4,2.84,2.84,0,0,0,2.61,1.38,4,4,0,0,0,3-1.38Z"/><path class="cls-3" d="M318.16,52.08a9.23,9.23,0,0,1-3.94-.85v-3H316V50a8.16,8.16,0,0,0,2.28.31,3.53,3.53,0,0,0,2.2-.53,1.88,1.88,0,0,0,.64-1.5,1.68,1.68,0,0,0-.76-1.42A10.67,10.67,0,0,0,318,45.79,7.77,7.77,0,0,1,314.88,44a3.32,3.32,0,0,1-.83-2.23A3.44,3.44,0,0,1,315.4,39a5.36,5.36,0,0,1,3.46-1.09,8.38,8.38,0,0,1,3.66.83v3h-1.8V39.87a5.58,5.58,0,0,0-2-.31,3.07,3.07,0,0,0-2,.54,1.69,1.69,0,0,0-.65,1.39,1.56,1.56,0,0,0,.7,1.36,10,10,0,0,0,2.23,1,9.1,9.1,0,0,1,3.17,1.7,3.28,3.28,0,0,1,1,2.49,3.52,3.52,0,0,1-1.38,2.9A5.79,5.79,0,0,1,318.16,52.08Z"/><path class="cls-3" d="M325.29,50H327V32.72h-1.72V31h3.8V50h1.38v1.73h-5.18Zm6.91-11.75h5.18V40h-1.83l-3.94,4.18L336.14,50h1.59v1.73h-5.36V50h1.28l0-.07-4.26-5.56L333.48,40H332.2Z"/><path class="cls-3" d="M348.79,49.14V51a7.54,7.54,0,0,1-4,1.07,5.25,5.25,0,0,1-4.27-1.84,7.68,7.68,0,0,1-1.54-5.11,8,8,0,0,1,1.62-5.31,5.14,5.14,0,0,1,4.08-1.92,3.93,3.93,0,0,1,3.25,1.59A7.2,7.2,0,0,1,349.14,44v1.07h-8.06a7.35,7.35,0,0,0,.95,3.77,3.29,3.29,0,0,0,2.82,1.42A7.21,7.21,0,0,0,348.79,49.14Zm-1.73-5.71a4.65,4.65,0,0,0-.72-2.88,2.48,2.48,0,0,0-2-.92,2.8,2.8,0,0,0-2.15.95,4.83,4.83,0,0,0-1,2.85Z"/><path class="cls-3" d="M351.21,50h1.73V40h-1.73V38.25h3.7l.1,1.94h.07a4.89,4.89,0,0,1,1.45-1.63,3.47,3.47,0,0,1,1.91-.52,3.82,3.82,0,0,1,.72.07v2.18a5.32,5.32,0,0,0-1.07-.1,3.24,3.24,0,0,0-1.75.46A4.18,4.18,0,0,0,355,42.16V50h2.08v1.73h-5.88Z"/><path class="cls-3" d="M365.73,50h1.73V40h-1.73V38.25h3.7l.1,1.94h.07a4.89,4.89,0,0,1,1.45-1.63A3.46,3.46,0,0,1,373,38a3.85,3.85,0,0,1,.73.07v2.18a5.39,5.39,0,0,0-1.07-.1,3.24,3.24,0,0,0-1.75.46,4.09,4.09,0,0,0-1.33,1.51V50h2.08v1.73h-5.88Z"/><path class="cls-3" d="M375.06,50h1.73V40h-1.73V38.25h3.81V50h1.72v1.73h-5.53Zm1.14-15.41a1.56,1.56,0,0,1,.4-1.13,1.66,1.66,0,0,1,2.16,0,1.4,1.4,0,0,1,.42,1.06,1.44,1.44,0,0,1-.42,1.09,1.54,1.54,0,0,1-1.1.39,1.46,1.46,0,0,1-1.06-.39A1.42,1.42,0,0,1,376.2,34.59Z"/><path class="cls-3" d="M386.61,52.08a9.2,9.2,0,0,1-3.94-.85v-3h1.8V50a8.16,8.16,0,0,0,2.28.31,3.51,3.51,0,0,0,2.19-.53,1.85,1.85,0,0,0,.64-1.5,1.65,1.65,0,0,0-.76-1.42,10.45,10.45,0,0,0-2.39-1.11A7.85,7.85,0,0,1,383.32,44a3.32,3.32,0,0,1-.83-2.23A3.44,3.44,0,0,1,383.84,39a5.36,5.36,0,0,1,3.46-1.09,8.38,8.38,0,0,1,3.66.83v3h-1.79V39.87a5.61,5.61,0,0,0-2-.31,3.08,3.08,0,0,0-2,.54,1.72,1.72,0,0,0-.65,1.39,1.55,1.55,0,0,0,.71,1.36,9.58,9.58,0,0,0,2.23,1,9,9,0,0,1,3.16,1.7,3.25,3.25,0,0,1,1,2.49,3.52,3.52,0,0,1-1.38,2.9A5.78,5.78,0,0,1,386.61,52.08Z"/><path class="cls-3" d="M393.73,50h1.73V40h-1.73V38.25h3.8V50h1.73v1.73h-5.53Zm1.14-15.41a1.51,1.51,0,0,1,.4-1.13,1.47,1.47,0,0,1,1.09-.4,1.52,1.52,0,0,1,1.07.4,1.43,1.43,0,0,1,.41,1.06,1.47,1.47,0,0,1-.41,1.09,1.57,1.57,0,0,1-1.11.39,1.42,1.42,0,0,1-1.05-.39A1.38,1.38,0,0,1,394.87,34.59Z"/><path class="cls-3" d="M401,50h1.73V32.72H401V31h3.8V50h1.38v1.73H401Zm6.91-11.75h5.19V40h-1.84l-3.94,4.18L411.84,50h1.59v1.73h-5.36V50h1.28l0-.07-4.25-5.56,4-4.39H407.9Z"/><path class="cls-3" d="M414.64,45.06a7.93,7.93,0,0,1,1.61-5.22,5.05,5.05,0,0,1,4.06-1.94,4.8,4.8,0,0,1,3.92,1.8,7.77,7.77,0,0,1,1.47,5,8.47,8.47,0,0,1-1.55,5.32,4.92,4.92,0,0,1-4.08,2,4.73,4.73,0,0,1-4-1.92A8.17,8.17,0,0,1,414.64,45.06Zm2.18-.31a8,8,0,0,0,.88,4.16,2.82,2.82,0,0,0,2.54,1.44A2.71,2.71,0,0,0,422.66,49a7.54,7.54,0,0,0,.87-4.06q0-5.33-3.39-5.33a2.8,2.8,0,0,0-2.47,1.23A6.92,6.92,0,0,0,416.82,44.75Z"/><path class="cls-3" d="M438,49.14V51a7.54,7.54,0,0,1-4,1.07,5.26,5.26,0,0,1-4.27-1.84,7.74,7.74,0,0,1-1.54-5.11,7.93,7.93,0,0,1,1.63-5.31,5.11,5.11,0,0,1,4.08-1.92,3.94,3.94,0,0,1,3.25,1.59A7.27,7.27,0,0,1,438.32,44v1.07h-8.05a7.16,7.16,0,0,0,1,3.77A3.26,3.26,0,0,0,434,50.28,7.19,7.19,0,0,0,438,49.14Zm-1.72-5.71a4.65,4.65,0,0,0-.73-2.88,2.45,2.45,0,0,0-2-.92,2.78,2.78,0,0,0-2.14.95,4.83,4.83,0,0,0-1,2.85Z"/><path class="cls-3" d="M440.39,50h1.73V40h-1.73V38.25h3.67l.1,1.8h0a5.56,5.56,0,0,1,4.28-2.15,3,3,0,0,1,2.53,1,4.32,4.32,0,0,1,.79,2.78V50h1.73v1.73h-5.19V50h1.39V42a2.56,2.56,0,0,0-.49-1.85,1.85,1.85,0,0,0-1.34-.47,4.76,4.76,0,0,0-3.7,2.15V50h1.38v1.73h-5.19Z"/><path class="cls-3" d="M469.15,34.45h-1.79V32.58a5.24,5.24,0,0,0-1-.1,2.27,2.27,0,0,0-1.85.69,3.54,3.54,0,0,0-.57,2.25v2.83H467V40H463.9V50h1.73v1.73H460.1V50h1.73V40H460.1V38.25h1.73V35.73A5,5,0,0,1,463,32a4.35,4.35,0,0,1,3.27-1.21,8.77,8.77,0,0,1,2.86.52Z"/><path class="cls-3" d="M468.57,45.06a7.92,7.92,0,0,1,1.6-5.22,5.08,5.08,0,0,1,4.07-1.94,4.81,4.81,0,0,1,3.92,1.8,7.77,7.77,0,0,1,1.47,5,8.42,8.42,0,0,1-1.56,5.32,4.9,4.9,0,0,1-4.08,2A4.7,4.7,0,0,1,470,50.16,8.17,8.17,0,0,1,468.57,45.06Zm2.17-.31a8,8,0,0,0,.89,4.16,2.8,2.8,0,0,0,2.54,1.44A2.74,2.74,0,0,0,476.59,49a7.64,7.64,0,0,0,.86-4.06q0-5.33-3.39-5.33a2.82,2.82,0,0,0-2.47,1.23A7,7,0,0,0,470.74,44.75Z"/><path class="cls-3" d="M481.88,50h1.72V40h-1.72V38.25h3.69l.11,1.94h.07a4.79,4.79,0,0,1,1.45-1.63,3.44,3.44,0,0,1,1.9-.52,3.85,3.85,0,0,1,.73.07v2.18a5.49,5.49,0,0,0-1.08-.1,3.21,3.21,0,0,0-1.74.46,4,4,0,0,0-1.33,1.51V50h2.07v1.73h-5.87Z"/><path class="cls-3" d="M96.1,72.85A9.8,9.8,0,0,1,101,71.5a4.93,4.93,0,0,1,3.3,1,3.9,3.9,0,0,1,1.16,3.13v8h1.73v1.73h-3.6l-.1-1.55-.07,0a5.19,5.19,0,0,1-4.08,1.94,3.82,3.82,0,0,1-2.85-1.06,3.59,3.59,0,0,1-1.06-2.68,3.51,3.51,0,0,1,1.89-3.25,11.31,11.31,0,0,1,5.48-1.07h.58v-2a2.33,2.33,0,0,0-.6-1.81,3,3,0,0,0-2-.54,6.47,6.47,0,0,0-2.84.56v1.86H96.1Zm6.43,6.26a8.85,8.85,0,0,0-3.66.6,2.18,2.18,0,0,0-1.28,2.13,2,2,0,0,0,.62,1.61,2.5,2.5,0,0,0,1.59.5,4.57,4.57,0,0,0,3.56-1.7V79.11Z"/><path class="cls-3" d="M108.55,83.6h1.73V66.32h-1.73V64.59h3.8v19h1.73v1.73h-5.53Z"/><path class="cls-3" d="M122.31,85.5h-2l-4-11.92h-1.56V71.85H120v1.73h-1.52l3,9.26h.07l3.11-9.26h-1.55V71.85h5.18v1.73h-1.73Z"/><path class="cls-3" d="M129.46,78.66a7.93,7.93,0,0,1,1.61-5.22,5.05,5.05,0,0,1,4.06-1.94,4.8,4.8,0,0,1,3.92,1.8,7.77,7.77,0,0,1,1.47,5A8.47,8.47,0,0,1,139,83.67a4.92,4.92,0,0,1-4.08,2,4.73,4.73,0,0,1-4-1.92A8.17,8.17,0,0,1,129.46,78.66Zm2.18-.31a8,8,0,0,0,.88,4.16A2.81,2.81,0,0,0,135.06,84a2.73,2.73,0,0,0,2.42-1.33,7.55,7.55,0,0,0,.86-4.06c0-3.55-1.12-5.33-3.38-5.33a2.8,2.8,0,0,0-2.47,1.23A6.92,6.92,0,0,0,131.64,78.35Z"/><path class="cls-3" d="M142.77,83.6h1.73v-10h-1.73V71.85h3.7l.1,1.94h.07a4.89,4.89,0,0,1,1.45-1.63,3.46,3.46,0,0,1,1.9-.52,3.85,3.85,0,0,1,.73.07v2.18a5.39,5.39,0,0,0-1.07-.1,3.24,3.24,0,0,0-1.75.46,4.09,4.09,0,0,0-1.33,1.51V83.6h2.08v1.73h-5.88Z"/><path class="cls-3" d="M152.1,83.6h1.73V66.32H152.1V64.59h3.81v19h1.72v1.73H152.1Z"/><path class="cls-3" d="M159.36,83.6h1.73v-10h-1.73V71.85h3.8V83.6h1.73v1.73h-5.53Zm1.14-15.41a1.51,1.51,0,0,1,.4-1.13,1.49,1.49,0,0,1,1.09-.4,1.51,1.51,0,0,1,1.07.4,1.39,1.39,0,0,1,.41,1.06,1.43,1.43,0,0,1-.41,1.09,1.57,1.57,0,0,1-1.11.39,1.43,1.43,0,0,1-1-.39A1.38,1.38,0,0,1,160.5,68.19Z"/><path class="cls-3" d="M167,76.38a4.81,4.81,0,0,1,1.34-3.51,4.66,4.66,0,0,1,3.46-1.37,4.91,4.91,0,0,1,1.38.18,4.39,4.39,0,0,0,1.25.17h3.28v1.66h-2v0a5,5,0,0,1,.66,2.53,5.23,5.23,0,0,1-1.33,3.7,4.53,4.53,0,0,1-3.44,1.41,5.15,5.15,0,0,1-1.73-.27,2.25,2.25,0,0,0-.66,1.45.83.83,0,0,0,.28.66,1.28,1.28,0,0,0,.86.24h2.42a5.73,5.73,0,0,1,3.51.93A3.25,3.25,0,0,1,177.51,87a4.27,4.27,0,0,1-1.8,3.59,7.34,7.34,0,0,1-4.53,1.35,5.7,5.7,0,0,1-3.56-1,3.21,3.21,0,0,1-1.35-2.66,4.47,4.47,0,0,1,1.87-3.42,2.24,2.24,0,0,1-.83-1.8,3.5,3.5,0,0,1,1.49-2.63A4.73,4.73,0,0,1,167,76.38Zm2.45,9a3.28,3.28,0,0,0-1.07,2.42,2.34,2.34,0,0,0,.76,1.85,3.47,3.47,0,0,0,2.35.67,4.82,4.82,0,0,0,2.92-.77,2.43,2.43,0,0,0,1.06-2,1.88,1.88,0,0,0-.71-1.6,3.19,3.19,0,0,0-2-.54Zm-.31-9.12a4,4,0,0,0,.66,2.43,2.28,2.28,0,0,0,2,.88,2.2,2.2,0,0,0,1.86-.79,3.87,3.87,0,0,0,.63-2.42,3.54,3.54,0,0,0-.64-2.33,2.44,2.44,0,0,0-2-.75,2.36,2.36,0,0,0-1.88.73A3.3,3.3,0,0,0,169.11,76.21Z"/><path class="cls-3" d="M189.09,82.74v1.87a7.54,7.54,0,0,1-4,1.07,5.26,5.26,0,0,1-4.27-1.83,7.73,7.73,0,0,1-1.54-5.12,8,8,0,0,1,1.62-5.31,5.13,5.13,0,0,1,4.08-1.92,3.93,3.93,0,0,1,3.25,1.59,7.2,7.2,0,0,1,1.25,4.53v1.07h-8.06a7.25,7.25,0,0,0,1,3.77,3.29,3.29,0,0,0,2.82,1.42A7.21,7.21,0,0,0,189.09,82.74ZM187.36,77a4.67,4.67,0,0,0-.72-2.89,2.48,2.48,0,0,0-2-.92,2.8,2.8,0,0,0-2.15,1,4.83,4.83,0,0,0-1,2.86Z"/><path class="cls-3" d="M198.08,66.32h-1.73V64.59h3.8v8.85h0a5.76,5.76,0,0,1,4.25-1.94,3,3,0,0,1,2.52,1,4.32,4.32,0,0,1,.8,2.78V83.6h1.72v1.73H204.3V83.6h1.38v-8a2.62,2.62,0,0,0-.48-1.85,1.86,1.86,0,0,0-1.35-.47,4.88,4.88,0,0,0-3.7,2v8.4h1.38v1.73h-5.18V83.6h1.73Z"/><path class="cls-3" d="M211.39,78.66a7.92,7.92,0,0,1,1.6-5.22,5.07,5.07,0,0,1,4.06-1.94A4.81,4.81,0,0,1,221,73.3a7.77,7.77,0,0,1,1.47,5,8.42,8.42,0,0,1-1.56,5.32,4.91,4.91,0,0,1-4.08,2,4.73,4.73,0,0,1-4-1.92A8.17,8.17,0,0,1,211.39,78.66Zm2.17-.31a8.07,8.07,0,0,0,.88,4.16A2.82,2.82,0,0,0,217,84a2.74,2.74,0,0,0,2.42-1.33,7.64,7.64,0,0,0,.86-4.06q0-5.32-3.39-5.33a2.81,2.81,0,0,0-2.47,1.23A6.92,6.92,0,0,0,213.56,78.35Z"/><path class="cls-3" d="M231.19,85.5h-2l-4-11.92h-1.55V71.85h5.18v1.73h-1.52l3,9.26h.07l3.11-9.26H232V71.85h5.19v1.73h-1.73Z"/><path class="cls-3" d="M248.2,82.74v1.87a7.54,7.54,0,0,1-4,1.07,5.27,5.27,0,0,1-4.27-1.83,7.73,7.73,0,0,1-1.54-5.12A8,8,0,0,1,240,73.42a5.14,5.14,0,0,1,4.08-1.92,3.93,3.93,0,0,1,3.25,1.59,7.2,7.2,0,0,1,1.25,4.53v1.07h-8.06a7.25,7.25,0,0,0,.95,3.77,3.29,3.29,0,0,0,2.82,1.42A7.21,7.21,0,0,0,248.2,82.74ZM246.47,77a4.67,4.67,0,0,0-.72-2.89,2.48,2.48,0,0,0-2-.92,2.8,2.8,0,0,0-2.15,1,4.83,4.83,0,0,0-1,2.86Z"/><path class="cls-3" d="M257.53,66.32V64.59h4.15v19h1.73v1.73h-3.7l-.1-1.17-.07,0a4.57,4.57,0,0,1-3.46,1.56,4.39,4.39,0,0,1-3.73-1.9,8.29,8.29,0,0,1-1.38-5,8,8,0,0,1,1.66-5.27,5.27,5.27,0,0,1,4.28-2,6,6,0,0,1,2.63.63l.07,0V66.32Zm2.08,7.4a7.14,7.14,0,0,0-2.6-.49,3.38,3.38,0,0,0-2.92,1.3,6.88,6.88,0,0,0-1,4,7.82,7.82,0,0,0,.85,4A2.85,2.85,0,0,0,256.6,84a4,4,0,0,0,3-1.38Z"/><path class="cls-3" d="M269.43,85.68a9.24,9.24,0,0,1-3.95-.85v-3h1.8v1.8a7.81,7.81,0,0,0,2.28.31,3.53,3.53,0,0,0,2.2-.53,1.88,1.88,0,0,0,.64-1.5,1.68,1.68,0,0,0-.76-1.42,10.45,10.45,0,0,0-2.39-1.11,7.77,7.77,0,0,1-3.11-1.78,3.32,3.32,0,0,1-.83-2.23,3.44,3.44,0,0,1,1.35-2.79,5.36,5.36,0,0,1,3.46-1.09,8.38,8.38,0,0,1,3.66.83v3H272V73.47a5.58,5.58,0,0,0-2-.31,3.07,3.07,0,0,0-2,.54,1.69,1.69,0,0,0-.65,1.39,1.56,1.56,0,0,0,.7,1.36,9.58,9.58,0,0,0,2.23,1,9,9,0,0,1,3.17,1.7,3.28,3.28,0,0,1,1,2.49,3.52,3.52,0,0,1-1.38,2.9A5.78,5.78,0,0,1,269.43,85.68Z"/><path class="cls-3" d="M276.55,83.6h1.72V66.32h-1.72V64.59h3.8v19h1.38v1.73h-5.18Zm6.91-11.75h5.18v1.73h-1.83l-3.94,4.18,4.53,5.84H289v1.73h-5.36V83.6h1.28l0-.07L280.69,78l4.05-4.39h-1.28Z"/><path class="cls-3" d="M291.06,72.85a9.8,9.8,0,0,1,4.88-1.35,4.93,4.93,0,0,1,3.3,1,3.9,3.9,0,0,1,1.16,3.13v8h1.73v1.73h-3.6l-.1-1.55-.07,0a5.19,5.19,0,0,1-4.08,1.94,3.82,3.82,0,0,1-2.85-1.06,3.59,3.59,0,0,1-1.06-2.68,3.51,3.51,0,0,1,1.89-3.25,11.31,11.31,0,0,1,5.48-1.07h.58v-2a2.33,2.33,0,0,0-.6-1.81,3,3,0,0,0-2-.54,6.47,6.47,0,0,0-2.84.56v1.86h-1.8Zm6.43,6.26a8.85,8.85,0,0,0-3.66.6,2.18,2.18,0,0,0-1.28,2.13,2,2,0,0,0,.62,1.61,2.5,2.5,0,0,0,1.59.5,4.59,4.59,0,0,0,3.56-1.7V79.11Z"/><path class="cls-3" d="M310.42,66.32V64.59h4.15v19h1.73v1.73h-3.7l-.1-1.17-.07,0A4.57,4.57,0,0,1,309,85.68a4.39,4.39,0,0,1-3.73-1.9,8.23,8.23,0,0,1-1.39-5,8.05,8.05,0,0,1,1.66-5.27,5.31,5.31,0,0,1,4.29-2,6,6,0,0,1,2.63.63l.07,0V66.32Zm2.08,7.4a7.17,7.17,0,0,0-2.6-.49,3.38,3.38,0,0,0-2.92,1.3,6.88,6.88,0,0,0-1,4,7.72,7.72,0,0,0,.85,4A2.84,2.84,0,0,0,309.49,84a4,4,0,0,0,3-1.38Z"/><path class="cls-3" d="M328.05,82.74v1.87a7.54,7.54,0,0,1-4,1.07,5.27,5.27,0,0,1-4.27-1.83,7.73,7.73,0,0,1-1.54-5.12,8,8,0,0,1,1.62-5.31,5.14,5.14,0,0,1,4.08-1.92,3.93,3.93,0,0,1,3.25,1.59,7.2,7.2,0,0,1,1.25,4.53v1.07h-8.06a7.35,7.35,0,0,0,1,3.77,3.29,3.29,0,0,0,2.82,1.42A7.21,7.21,0,0,0,328.05,82.74ZM326.32,77a4.67,4.67,0,0,0-.72-2.89,2.48,2.48,0,0,0-2-.92,2.8,2.8,0,0,0-2.15,1,4.83,4.83,0,0,0-1,2.86Z"/><path class="cls-3" d="M330.47,83.6h1.73v-10h-1.73V71.85h3.7l.1,1.94h.07a4.89,4.89,0,0,1,1.45-1.63,3.47,3.47,0,0,1,1.91-.52,3.82,3.82,0,0,1,.72.07v2.18a5.32,5.32,0,0,0-1.07-.1,3.24,3.24,0,0,0-1.75.46,4.18,4.18,0,0,0-1.33,1.51V83.6h2.08v1.73h-5.88Z"/><path class="cls-3" d="M341.5,81.25a4.29,4.29,0,0,1,1.59,3.11q0,2.25-2.63,4.57l-1.07-1a3.79,3.79,0,0,0,1.45-2.73A3.29,3.29,0,0,0,339.53,83Z"/><path class="cls-3" d="M352.59,66.32h-1.72V64.59h3.8v8.85h0A5.77,5.77,0,0,1,359,71.5a3,3,0,0,1,2.53,1,4.32,4.32,0,0,1,.79,2.78V83.6H364v1.73h-5.18V83.6h1.38v-8a2.62,2.62,0,0,0-.48-1.85,1.9,1.9,0,0,0-1.35-.47,4.88,4.88,0,0,0-3.7,2v8.4h1.38v1.73h-5.18V83.6h1.72Z"/><path class="cls-3" d="M372.23,85.5h-2l-4-11.92h-1.56V71.85h5.19v1.73h-1.52l3,9.26h.07l3.11-9.26H373V71.85h5.18v1.73h-1.73Z"/><path class="cls-3" d="M379.21,83.6h1.73v-10h-1.73V71.85H383V83.6h1.73v1.73h-5.53Zm1.14-15.41a1.51,1.51,0,0,1,.4-1.13,1.49,1.49,0,0,1,1.09-.4,1.52,1.52,0,0,1,1.07.4,1.39,1.39,0,0,1,.41,1.06,1.43,1.43,0,0,1-.41,1.09,1.57,1.57,0,0,1-1.11.39,1.42,1.42,0,0,1-1.05-.39A1.38,1.38,0,0,1,380.35,68.19Z"/><path class="cls-3" d="M390.76,85.68a9.24,9.24,0,0,1-3.95-.85v-3h1.8v1.8a7.81,7.81,0,0,0,2.28.31,3.53,3.53,0,0,0,2.2-.53,1.88,1.88,0,0,0,.64-1.5A1.68,1.68,0,0,0,393,80.5a10.45,10.45,0,0,0-2.39-1.11,7.77,7.77,0,0,1-3.11-1.78,3.32,3.32,0,0,1-.83-2.23A3.44,3.44,0,0,1,388,72.59a5.36,5.36,0,0,1,3.46-1.09,8.38,8.38,0,0,1,3.66.83v3h-1.8V73.47a5.58,5.58,0,0,0-2-.31,3.07,3.07,0,0,0-2,.54,1.69,1.69,0,0,0-.65,1.39,1.56,1.56,0,0,0,.7,1.36,9.58,9.58,0,0,0,2.23,1,9,9,0,0,1,3.17,1.7,3.28,3.28,0,0,1,1,2.49,3.52,3.52,0,0,1-1.38,2.9A5.78,5.78,0,0,1,390.76,85.68Z"/><path class="cls-3" d="M410,66.32V64.59h4.15v19h1.73v1.73h-3.7l-.1-1.17-.07,0a4.57,4.57,0,0,1-3.46,1.56,4.4,4.4,0,0,1-3.73-1.9,8.29,8.29,0,0,1-1.38-5,8,8,0,0,1,1.66-5.27,5.27,5.27,0,0,1,4.28-2,6,6,0,0,1,2.63.63l.07,0V66.32Zm2.08,7.4a7.12,7.12,0,0,0-2.59-.49,3.36,3.36,0,0,0-2.92,1.3,6.8,6.8,0,0,0-1,4,7.83,7.83,0,0,0,.84,4A2.86,2.86,0,0,0,409,84a4,4,0,0,0,3-1.38Z"/><path class="cls-3" d="M426.57,73.58h-1.73V71.85h3.8V83.6h1.73v1.73h-3.63l-.1-1.48h-.07a4.8,4.8,0,0,1-3.84,1.83A3.39,3.39,0,0,1,419,81.91V73.58h-1.73V71.85H421v9.71a2.39,2.39,0,0,0,.6,1.89,2.53,2.53,0,0,0,1.64.5,4,4,0,0,0,3.29-1.63Z"/><path class="cls-3" d="M447.31,82.74v1.87a7.56,7.56,0,0,1-4.05,1.07A5.28,5.28,0,0,1,439,83.85a7.78,7.78,0,0,1-1.53-5.12,8,8,0,0,1,1.62-5.31,5.11,5.11,0,0,1,4.08-1.92,3.93,3.93,0,0,1,3.25,1.59,7.21,7.21,0,0,1,1.24,4.53v1.07h-8a7.25,7.25,0,0,0,.95,3.77,3.29,3.29,0,0,0,2.82,1.42A7.21,7.21,0,0,0,447.31,82.74ZM445.58,77a4.6,4.6,0,0,0-.73-2.89,2.45,2.45,0,0,0-2-.92,2.79,2.79,0,0,0-2.14,1,4.84,4.84,0,0,0-1,2.86Z"/><path class="cls-3" d="M449.73,83.6h1.73v-10h-1.73V71.85h3.7l.1,1.94h.07a4.89,4.89,0,0,1,1.45-1.63,3.44,3.44,0,0,1,1.9-.52,3.85,3.85,0,0,1,.73.07v2.18a5.46,5.46,0,0,0-1.07-.1,3.24,3.24,0,0,0-1.75.46,4.09,4.09,0,0,0-1.33,1.51V83.6h2.07v1.73h-5.87Z"/><path class="cls-3" d="M104.05,107.18h-1.72v-1.73h3.8V117.2h1.73v1.73h-3.63l-.11-1.48h-.07a4.77,4.77,0,0,1-3.83,1.83,3.39,3.39,0,0,1-3.77-3.77v-8.33H94.72v-1.73h3.8v9.71a2.35,2.35,0,0,0,.61,1.89,2.51,2.51,0,0,0,1.64.5,4,4,0,0,0,3.28-1.63Z"/><path class="cls-3" d="M111,99.92h-1.73V98.19H113V107h0a5.76,5.76,0,0,1,4.25-1.94,3,3,0,0,1,2.52,1,4.32,4.32,0,0,1,.8,2.78v8.33h1.72v1.73h-5.18V117.2h1.38v-8a2.62,2.62,0,0,0-.48-1.85,1.86,1.86,0,0,0-1.35-.47,4.88,4.88,0,0,0-3.7,2v8.4h1.38v1.73h-5.18V117.2H111Z"/><path class="cls-3" d="M134.13,116.34v1.87a7.56,7.56,0,0,1-4,1.07,5.28,5.28,0,0,1-4.27-1.83,7.78,7.78,0,0,1-1.53-5.12A8,8,0,0,1,125.9,107,5.11,5.11,0,0,1,130,105.1a3.93,3.93,0,0,1,3.25,1.59,7.21,7.21,0,0,1,1.24,4.53v1.07h-8a7.25,7.25,0,0,0,1,3.77,3.29,3.29,0,0,0,2.82,1.42A7.21,7.21,0,0,0,134.13,116.34Zm-1.73-5.7a4.6,4.6,0,0,0-.73-2.89,2.45,2.45,0,0,0-2-.92,2.79,2.79,0,0,0-2.14,1,4.84,4.84,0,0,0-1,2.86Z"/><path class="cls-3" d="M136.55,117.2h1.73V99.92h-1.73V98.19h3.8v19h1.73v1.73h-5.53Z"/><path class="cls-3" d="M150.72,99.92V98.19h4.15v19h1.73v1.73h-3.7l-.11-1.17-.07,0a4.55,4.55,0,0,1-3.45,1.56,4.42,4.42,0,0,1-3.74-1.9,8.29,8.29,0,0,1-1.38-5,8.05,8.05,0,0,1,1.66-5.27,5.31,5.31,0,0,1,4.29-2,6,6,0,0,1,2.62.63l.07,0V99.92Zm2.07,7.4a7.08,7.08,0,0,0-2.59-.49,3.37,3.37,0,0,0-2.92,1.3,6.88,6.88,0,0,0-.95,4,7.72,7.72,0,0,0,.85,4,2.84,2.84,0,0,0,2.61,1.38,4,4,0,0,0,3-1.38Z"/><path class="cls-3" d="M158.32,117.2h1.73v-10h-1.73v-1.73h3.81V117.2h1.73v1.73h-5.54Zm1.15-15.41a1.55,1.55,0,0,1,.39-1.13,1.51,1.51,0,0,1,1.09-.4,1.49,1.49,0,0,1,1.07.4,1.4,1.4,0,0,1,.42,1.06,1.44,1.44,0,0,1-.42,1.09,1.52,1.52,0,0,1-1.1.39,1.46,1.46,0,0,1-1.06-.39A1.41,1.41,0,0,1,159.47,101.79Z"/><path class="cls-3" d="M165.93,110a4.78,4.78,0,0,1,1.35-3.51,4.65,4.65,0,0,1,3.45-1.37,5,5,0,0,1,1.39.18,4.32,4.32,0,0,0,1.24.17h3.29v1.66h-2v0a5.07,5.07,0,0,1,.65,2.53,5.19,5.19,0,0,1-1.33,3.7,4.52,4.52,0,0,1-3.44,1.41,5.19,5.19,0,0,1-1.73-.27,2.24,2.24,0,0,0-.65,1.45.85.85,0,0,0,.27.66,1.33,1.33,0,0,0,.87.24h2.42a5.73,5.73,0,0,1,3.51.93,3.27,3.27,0,0,1,1.22,2.77,4.29,4.29,0,0,1-1.79,3.59,7.34,7.34,0,0,1-4.53,1.35,5.68,5.68,0,0,1-3.56-1,3.21,3.21,0,0,1-1.35-2.66,4.46,4.46,0,0,1,1.86-3.42,2.23,2.23,0,0,1-.82-1.8,3.49,3.49,0,0,1,1.48-2.63A4.73,4.73,0,0,1,165.93,110Zm2.45,9a3.28,3.28,0,0,0-1.07,2.42,2.37,2.37,0,0,0,.76,1.85,3.47,3.47,0,0,0,2.35.67,4.8,4.8,0,0,0,2.92-.77,2.41,2.41,0,0,0,1.06-2,1.88,1.88,0,0,0-.71-1.6,3.14,3.14,0,0,0-1.95-.54Zm-.31-9.12a4,4,0,0,0,.66,2.43,2.29,2.29,0,0,0,2,.88,2.23,2.23,0,0,0,1.87-.79,3.94,3.94,0,0,0,.62-2.42,3.49,3.49,0,0,0-.64-2.33,2.43,2.43,0,0,0-2-.75,2.38,2.38,0,0,0-1.89.73A3.36,3.36,0,0,0,168.07,109.81Z"/><path class="cls-3" d="M183.39,112.26A7.92,7.92,0,0,1,185,107a5.07,5.07,0,0,1,4.06-1.94,4.81,4.81,0,0,1,3.93,1.8,7.77,7.77,0,0,1,1.47,5,8.42,8.42,0,0,1-1.56,5.32,4.91,4.91,0,0,1-4.08,2,4.7,4.7,0,0,1-3.95-1.92A8.17,8.17,0,0,1,183.39,112.26Zm2.17-.31a8,8,0,0,0,.89,4.16,2.8,2.8,0,0,0,2.54,1.44,2.74,2.74,0,0,0,2.42-1.33,7.64,7.64,0,0,0,.86-4.06q0-5.32-3.39-5.33a2.81,2.81,0,0,0-2.47,1.23A7,7,0,0,0,185.56,112Z"/><path class="cls-3" d="M197,110a4.78,4.78,0,0,1,1.35-3.51,4.65,4.65,0,0,1,3.45-1.37,5,5,0,0,1,1.39.18,4.32,4.32,0,0,0,1.24.17h3.29v1.66h-2v0a5.07,5.07,0,0,1,.65,2.53,5.19,5.19,0,0,1-1.33,3.7,4.52,4.52,0,0,1-3.44,1.41,5.19,5.19,0,0,1-1.73-.27,2.29,2.29,0,0,0-.65,1.45.85.85,0,0,0,.27.66,1.33,1.33,0,0,0,.87.24h2.42a5.73,5.73,0,0,1,3.51.93,3.27,3.27,0,0,1,1.22,2.77,4.29,4.29,0,0,1-1.79,3.59,7.34,7.34,0,0,1-4.53,1.35,5.68,5.68,0,0,1-3.56-1,3.21,3.21,0,0,1-1.35-2.66,4.44,4.44,0,0,1,1.87-3.42,2.21,2.21,0,0,1-.83-1.8,3.49,3.49,0,0,1,1.48-2.63A4.73,4.73,0,0,1,197,110Zm2.45,9a3.28,3.28,0,0,0-1.07,2.42,2.37,2.37,0,0,0,.76,1.85,3.47,3.47,0,0,0,2.35.67,4.8,4.8,0,0,0,2.92-.77,2.41,2.41,0,0,0,1.06-2,1.88,1.88,0,0,0-.71-1.6,3.14,3.14,0,0,0-2-.54Zm-.31-9.12a4,4,0,0,0,.66,2.43,2.29,2.29,0,0,0,2,.88,2.23,2.23,0,0,0,1.87-.79,3.94,3.94,0,0,0,.62-2.42,3.49,3.49,0,0,0-.64-2.33,2.43,2.43,0,0,0-1.95-.75,2.38,2.38,0,0,0-1.89.73A3.36,3.36,0,0,0,199.18,109.81Z"/><path class="cls-3" d="M218.61,119.28a9.2,9.2,0,0,1-3.94-.85v-3h1.8v1.8a7.81,7.81,0,0,0,2.28.31,3.47,3.47,0,0,0,2.19-.53,1.85,1.85,0,0,0,.64-1.5,1.65,1.65,0,0,0-.76-1.42,10.34,10.34,0,0,0-2.38-1.11,7.77,7.77,0,0,1-3.11-1.78,3.27,3.27,0,0,1-.83-2.23,3.46,3.46,0,0,1,1.34-2.79,5.38,5.38,0,0,1,3.46-1.09,8.46,8.46,0,0,1,3.67.83v3h-1.8v-1.84a5.61,5.61,0,0,0-2-.31,3,3,0,0,0-2,.54,1.7,1.7,0,0,0-.66,1.39,1.57,1.57,0,0,0,.71,1.36,9.19,9.19,0,0,0,2.23,1,8.94,8.94,0,0,1,3.16,1.7,3.25,3.25,0,0,1,1,2.49,3.5,3.5,0,0,1-1.39,2.9A5.78,5.78,0,0,1,218.61,119.28Z"/><path class="cls-3" d="M225.73,117.2h1.73V99.92h-1.73V98.19h3.8v19h1.39v1.73h-5.19Zm6.91-11.75h5.19v1.73H236l-3.94,4.18,4.53,5.84h1.59v1.73h-5.36V117.2h1.28l0-.07-4.25-5.56,4-4.39h-1.28Z"/><path class="cls-3" d="M248.2,107.18h-1.73v-1.73h3.8V117.2H252v1.73h-3.63l-.1-1.48h-.07a4.77,4.77,0,0,1-3.84,1.83,3.38,3.38,0,0,1-3.76-3.77v-8.33h-1.73v-1.73h3.8v9.71a2.39,2.39,0,0,0,.6,1.89,2.56,2.56,0,0,0,1.65.5,4,4,0,0,0,3.28-1.63Z"/><path class="cls-3" d="M253.73,117.2h1.73V99.92h-1.73V98.19h3.8v19h1.73v1.73h-5.53Z"/><path class="cls-3" d="M261,117.2h1.73V99.92H261V98.19h3.8v19h1.73v1.73H261Z"/><path class="cls-3" d="M278.27,116.34v1.87a7.54,7.54,0,0,1-4,1.07,5.27,5.27,0,0,1-4.27-1.83,7.73,7.73,0,0,1-1.54-5.12,7.93,7.93,0,0,1,1.63-5.31,5.11,5.11,0,0,1,4.08-1.92,3.92,3.92,0,0,1,3.24,1.59,7.2,7.2,0,0,1,1.25,4.53v1.07h-8.06a7.35,7.35,0,0,0,.95,3.77,3.29,3.29,0,0,0,2.82,1.42A7.21,7.21,0,0,0,278.27,116.34Zm-1.73-5.7a4.67,4.67,0,0,0-.72-2.89,2.48,2.48,0,0,0-2-.92,2.78,2.78,0,0,0-2.14,1,4.77,4.77,0,0,0-1,2.86Z"/><path class="cls-3" d="M290.16,119.28a9.23,9.23,0,0,1-3.94-.85v-3H288v1.8a7.81,7.81,0,0,0,2.28.31,3.53,3.53,0,0,0,2.2-.53,1.88,1.88,0,0,0,.64-1.5,1.68,1.68,0,0,0-.76-1.42A10.67,10.67,0,0,0,290,113a7.77,7.77,0,0,1-3.11-1.78,3.32,3.32,0,0,1-.83-2.23,3.44,3.44,0,0,1,1.35-2.79,5.36,5.36,0,0,1,3.46-1.09,8.38,8.38,0,0,1,3.66.83v3h-1.8v-1.84a5.58,5.58,0,0,0-2-.31,3.07,3.07,0,0,0-2,.54,1.69,1.69,0,0,0-.65,1.39,1.56,1.56,0,0,0,.7,1.36,9.58,9.58,0,0,0,2.23,1,9.1,9.1,0,0,1,3.17,1.7,3.28,3.28,0,0,1,1,2.49,3.52,3.52,0,0,1-1.38,2.9A5.79,5.79,0,0,1,290.16,119.28Z"/><path class="cls-3" d="M301.88,119.28a3.38,3.38,0,0,1-2.35-.78,3,3,0,0,1-.86-2.3v-9h-1.73v-1.73h1.73v-3.11l2.07-.38v3.49h3.11v1.73h-3.11v8.67a1.74,1.74,0,0,0,.4,1.35,1.55,1.55,0,0,0,1.05.35,3.62,3.62,0,0,0,1.66-.42v1.7A4.48,4.48,0,0,1,301.88,119.28Z"/><path class="cls-3" d="M316.3,107.18l-4.46,12.62c-.28.8-.57,1.54-.88,2.21a8.16,8.16,0,0,1-1.07,1.74,4.11,4.11,0,0,1-1.44,1.13,4.74,4.74,0,0,1-2,.38,7.33,7.33,0,0,1-1.24-.11v-1.9a8,8,0,0,0,1.27.11,4.08,4.08,0,0,0,1-.12,2.38,2.38,0,0,0,.89-.49,4.35,4.35,0,0,0,.86-1.21,18.23,18.23,0,0,0,1-2.44h-.17l-4-11.92h-1.56v-1.73h5.19v1.73h-1.52l3,9.26h.07l3.14-9.26h-1.59v-1.73H318v1.73Z"/><path class="cls-3" d="M319.06,117.2h1.73v-10h-1.73v-1.73h3.7l.11,1.94h.06a4.91,4.91,0,0,1,1.46-1.63,3.44,3.44,0,0,1,1.9-.52,3.74,3.74,0,0,1,.72.07v2.18a5.32,5.32,0,0,0-1.07-.1,3.18,3.18,0,0,0-1.74.46,4,4,0,0,0-1.33,1.51v7.84h2.07v1.73h-5.88Z"/><path class="cls-3" d="M333,119.28a3.38,3.38,0,0,1-2.35-.78,3,3,0,0,1-.86-2.3v-9h-1.73v-1.73h1.73v-3.11l2.07-.38v3.49H335v1.73h-3.11v8.67a1.74,1.74,0,0,0,.4,1.35,1.55,1.55,0,0,0,1.05.35,3.62,3.62,0,0,0,1.66-.42v1.7A4.48,4.48,0,0,1,333,119.28Z"/><path class="cls-3" d="M346.72,116.34v1.87a7.58,7.58,0,0,1-4.05,1.07,5.28,5.28,0,0,1-4.27-1.83,7.78,7.78,0,0,1-1.53-5.12,8,8,0,0,1,1.62-5.31,5.11,5.11,0,0,1,4.08-1.92,3.93,3.93,0,0,1,3.25,1.59,7.21,7.21,0,0,1,1.24,4.53v1.07H339a7.16,7.16,0,0,0,.95,3.77,3.29,3.29,0,0,0,2.82,1.42A7.21,7.21,0,0,0,346.72,116.34Zm-1.73-5.7a4.6,4.6,0,0,0-.73-2.89,2.45,2.45,0,0,0-2-.92,2.79,2.79,0,0,0-2.14,1,4.84,4.84,0,0,0-1,2.86Z"/><path class="cls-3" d="M357.85,105.45l.1,1.11H358a5,5,0,0,1,3.49-1.46,4.22,4.22,0,0,1,3.56,1.82,7.82,7.82,0,0,1,1.35,4.79,8.66,8.66,0,0,1-1.64,5.48,5.09,5.09,0,0,1-4.17,2.09,5.93,5.93,0,0,1-2.59-.62l-.07,0v4.74H360v1.72h-5.88v-1.72h1.73V107.18h-1.73v-1.73ZM358,117a5.29,5.29,0,0,0,2.42.52,3.37,3.37,0,0,0,2.85-1.35,9.05,9.05,0,0,0,.12-8.11,2.82,2.82,0,0,0-2.42-1.26,3.92,3.92,0,0,0-3,1.49Z"/><path class="cls-3" d="M369.88,106.45a9.77,9.77,0,0,1,4.87-1.35,4.93,4.93,0,0,1,3.3,1,3.9,3.9,0,0,1,1.16,3.13v8h1.73v1.73h-3.6l-.1-1.55-.07,0a5.19,5.19,0,0,1-4.08,1.94,3.82,3.82,0,0,1-2.85-1.06,3.62,3.62,0,0,1-1.05-2.68,3.5,3.5,0,0,1,1.88-3.25,11.33,11.33,0,0,1,5.48-1.07h.59v-2a2.33,2.33,0,0,0-.61-1.81,3,3,0,0,0-2-.54,6.4,6.4,0,0,0-2.83.56v1.86h-1.8Zm6.43,6.26a8.9,8.9,0,0,0-3.67.6,2.18,2.18,0,0,0-1.28,2.13,1.94,1.94,0,0,0,.63,1.61,2.46,2.46,0,0,0,1.59.5,4.6,4.6,0,0,0,3.56-1.7v-3.14ZM372,101.82a2,2,0,0,1,.73-1.64,2.87,2.87,0,0,1,1.9-.61,2.73,2.73,0,0,1,1.9.61,2.07,2.07,0,0,1,.66,1.61,2.14,2.14,0,0,1-.71,1.62,2.77,2.77,0,0,1-2,.66,2.57,2.57,0,0,1-1.84-.64A2.13,2.13,0,0,1,372,101.82Zm1.42,0a1.18,1.18,0,0,0,.31.91,1.2,1.2,0,0,0,.86.3,1.15,1.15,0,0,0,.85-.33,1.2,1.2,0,0,0,.33-.88,1.09,1.09,0,0,0-.33-.85,1.37,1.37,0,0,0-1.71,0A1.11,1.11,0,0,0,373.37,101.79Z"/><path class="cls-3" d="M397.53,118.41a7.69,7.69,0,0,1-3.63.87,5.64,5.64,0,0,1-4.42-1.8,7.4,7.4,0,0,1-1.63-5.15,7.7,7.7,0,0,1,1.71-5.31A5.67,5.67,0,0,1,394,105.1a7.91,7.91,0,0,1,3.52.8v3.35H395.7v-2.11a5.11,5.11,0,0,0-1.87-.31,3.38,3.38,0,0,0-2.87,1.23A6.47,6.47,0,0,0,390,112a7,7,0,0,0,1,4.18,3.41,3.41,0,0,0,2.91,1.35,7.48,7.48,0,0,0,3.59-.93Z"/><path class="cls-3" d="M410.67,107.18l-4.46,12.62c-.28.8-.57,1.54-.88,2.21a8.18,8.18,0,0,1-1.08,1.74,4,4,0,0,1-1.43,1.13,4.74,4.74,0,0,1-2,.38,7.54,7.54,0,0,1-1.25-.11v-1.9a8.2,8.2,0,0,0,1.28.11,4.08,4.08,0,0,0,1-.12,2.38,2.38,0,0,0,.89-.49,4.35,4.35,0,0,0,.86-1.21,18.23,18.23,0,0,0,1-2.44h-.17l-4-11.92h-1.56v-1.73h5.19v1.73h-1.52l3,9.26h.06l3.15-9.26h-1.59v-1.73h5.18v1.73Z"/><path class="cls-3" d="M413.43,117.2h1.73V99.92h-1.73V98.19h3.8v19h1.39v1.73h-5.19Zm6.91-11.75h5.19v1.73H423.7l-3.94,4.18,4.53,5.84h1.59v1.73h-5.36V117.2h1.28l0-.07-4.25-5.56,4-4.39h-1.28Z"/><path class="cls-3" d="M426.91,117.2h1.73V99.92h-1.73V98.19h3.81v19h1.72v1.73h-5.53Z"/><path class="cls-3" d="M444.2,116.34v1.87a7.58,7.58,0,0,1-4.05,1.07,5.28,5.28,0,0,1-4.27-1.83,7.78,7.78,0,0,1-1.54-5.12A8,8,0,0,1,436,107a5.11,5.11,0,0,1,4.08-1.92,3.93,3.93,0,0,1,3.25,1.59,7.21,7.21,0,0,1,1.24,4.53v1.07h-8.05a7.16,7.16,0,0,0,.95,3.77,3.29,3.29,0,0,0,2.82,1.42A7.24,7.24,0,0,0,444.2,116.34Zm-1.73-5.7a4.6,4.6,0,0,0-.73-2.89,2.45,2.45,0,0,0-2-.92,2.79,2.79,0,0,0-2.14,1,4.84,4.84,0,0,0-1,2.86Z"/><path class="cls-3" d="M446.62,117.2h1.72v-10h-1.72v-1.73h3.66l.1,1.8h0a5.56,5.56,0,0,1,4.29-2.15,3,3,0,0,1,2.52,1,4.32,4.32,0,0,1,.79,2.78v8.33h1.73v1.73h-5.18V117.2H456v-8a2.62,2.62,0,0,0-.48-1.85,1.9,1.9,0,0,0-1.35-.47,4.76,4.76,0,0,0-3.7,2.15v8.22h1.38v1.73h-5.18Z"/><path class="cls-3" d="M461.83,117.58a1.89,1.89,0,0,1,.46-1.33,1.65,1.65,0,0,1,1.26-.5,1.67,1.67,0,0,1,1.27.5,1.7,1.7,0,0,1,.46,1.2,1.82,1.82,0,0,1-.48,1.34,1.74,1.74,0,0,1-1.31.49,1.53,1.53,0,0,1-1.21-.49A1.69,1.69,0,0,1,461.83,117.58Z"/><path class="cls-3" d="M95.07,150.8h2.07V135.59H95.07v-1.73h6.18c3,0,5.21.75,6.64,2.23s2.14,3.7,2.14,6.62q0,4.84-2.43,7.33t-7,2.49H95.07Zm4.14,0h1.66a6.79,6.79,0,0,0,5.17-1.9q1.81-1.91,1.82-6c0-2.53-.56-4.39-1.66-5.56s-2.88-1.77-5.33-1.77H99.21Z"/><path class="cls-3" d="M122.72,149.94v1.87a7.54,7.54,0,0,1-4,1.07,5.25,5.25,0,0,1-4.27-1.84,7.68,7.68,0,0,1-1.54-5.11,8,8,0,0,1,1.62-5.31,5.14,5.14,0,0,1,4.08-1.92,3.93,3.93,0,0,1,3.25,1.59,7.2,7.2,0,0,1,1.25,4.53v1.07H115a7.25,7.25,0,0,0,.95,3.77,3.29,3.29,0,0,0,2.82,1.42A7.21,7.21,0,0,0,122.72,149.94ZM121,144.23a4.65,4.65,0,0,0-.72-2.88,2.48,2.48,0,0,0-2-.92,2.8,2.8,0,0,0-2.15.95,4.83,4.83,0,0,0-1,2.85Z"/><path class="cls-3" d="M125.14,150.8h1.73v-10h-1.73v-1.73h3.7l.1,1.94H129a4.89,4.89,0,0,1,1.45-1.63,3.38,3.38,0,0,1,1.9-.52,3.85,3.85,0,0,1,.73.07v2.18A5.32,5.32,0,0,0,132,141a3.24,3.24,0,0,0-1.75.46,4.09,4.09,0,0,0-1.33,1.51v7.84H131v1.73h-5.88Z"/><path class="cls-3" d="M143.53,135.25h-1.8v-1.87a5.14,5.14,0,0,0-1-.1,2.26,2.26,0,0,0-1.85.69,3.54,3.54,0,0,0-.57,2.25v2.83h3.11v1.73h-3.11v10H140v1.73h-5.53V150.8h1.73v-10h-1.73v-1.73h1.73v-2.52a5.09,5.09,0,0,1,1.19-3.7,4.38,4.38,0,0,1,3.27-1.21,8.78,8.78,0,0,1,2.87.52Z"/><path class="cls-3" d="M142.94,145.86a7.93,7.93,0,0,1,1.61-5.22,5.07,5.07,0,0,1,4.06-1.94,4.78,4.78,0,0,1,3.92,1.8,7.77,7.77,0,0,1,1.47,5.05,8.41,8.41,0,0,1-1.55,5.32,4.92,4.92,0,0,1-4.08,2,4.73,4.73,0,0,1-4-1.92A8.17,8.17,0,0,1,142.94,145.86Zm2.18-.31a8,8,0,0,0,.88,4.16,2.82,2.82,0,0,0,2.54,1.44,2.73,2.73,0,0,0,2.42-1.33,7.54,7.54,0,0,0,.87-4.06q0-5.32-3.39-5.33a2.81,2.81,0,0,0-2.47,1.23A6.92,6.92,0,0,0,145.12,145.55Z"/><path class="cls-3" d="M156.25,150.8H158v-10h-1.73v-1.73H160l.1,1.94h.07a4.89,4.89,0,0,1,1.45-1.63,3.39,3.39,0,0,1,1.91-.52,3.82,3.82,0,0,1,.72.07v2.18a5.32,5.32,0,0,0-1.07-.1,3.24,3.24,0,0,0-1.75.46,4.18,4.18,0,0,0-1.33,1.51v7.84h2.08v1.73h-5.88Z"/><path class="cls-3" d="M171.81,140.05a9.77,9.77,0,0,1,4.87-1.35,4.93,4.93,0,0,1,3.3,1,3.9,3.9,0,0,1,1.16,3.13v8h1.73v1.73h-3.6l-.1-1.55-.07,0a5.19,5.19,0,0,1-4.08,1.94,3.82,3.82,0,0,1-2.85-1.06,3.63,3.63,0,0,1-1.06-2.68,3.51,3.51,0,0,1,1.89-3.25,11.31,11.31,0,0,1,5.48-1.07h.59v-2a2.33,2.33,0,0,0-.61-1.81,3,3,0,0,0-2-.54,6.47,6.47,0,0,0-2.84.56v1.86h-1.79Zm6.43,6.26a8.9,8.9,0,0,0-3.67.6,2.18,2.18,0,0,0-1.28,2.13,2,2,0,0,0,.62,1.61,2.51,2.51,0,0,0,1.6.5,4.6,4.6,0,0,0,3.56-1.7v-3.14Z"/><path class="cls-3" d="M184.25,150.8H186v-10h-1.73v-1.73h3.66l.11,1.8h0a5.59,5.59,0,0,1,4.29-2.15,3,3,0,0,1,2.52,1,4.32,4.32,0,0,1,.8,2.78v8.33h1.73v1.73H192.2V150.8h1.38v-8.05a2.62,2.62,0,0,0-.48-1.85,1.86,1.86,0,0,0-1.35-.47,4.78,4.78,0,0,0-3.7,2.15v8.22h1.39v1.73h-5.19Z"/><path class="cls-3" d="M202.4,139.91l.07,0a5.1,5.1,0,0,1,3.42-1.25,4.24,4.24,0,0,1,3.61,1.91,8.13,8.13,0,0,1,1.37,4.87,7.9,7.9,0,0,1-1.75,5.43,6.08,6.08,0,0,1-4.79,2,13,13,0,0,1-4-.66v-18.7H198.6v-1.73h3.8Zm0,11a10.24,10.24,0,0,0,2,.21,3.92,3.92,0,0,0,3.16-1.28,6.2,6.2,0,0,0,1.09-4.08,7.63,7.63,0,0,0-.85-3.92,2.78,2.78,0,0,0-2.57-1.44,4.37,4.37,0,0,0-2.87,1.14Z"/><path class="cls-3" d="M223.31,149.94v1.87a7.54,7.54,0,0,1-4,1.07A5.25,5.25,0,0,1,215,151a7.68,7.68,0,0,1-1.54-5.11,8,8,0,0,1,1.62-5.31,5.14,5.14,0,0,1,4.08-1.92,3.93,3.93,0,0,1,3.25,1.59,7.2,7.2,0,0,1,1.25,4.53v1.07H215.6a7.35,7.35,0,0,0,1,3.77,3.29,3.29,0,0,0,2.82,1.42A7.21,7.21,0,0,0,223.31,149.94Zm-1.73-5.71a4.65,4.65,0,0,0-.72-2.88,2.48,2.48,0,0,0-2-.92,2.78,2.78,0,0,0-2.14.95,4.77,4.77,0,0,0-1,2.85Z"/><path class="cls-3" d="M234.79,135.25H233v-1.87a5.16,5.16,0,0,0-1-.1,2.25,2.25,0,0,0-1.84.69,3.47,3.47,0,0,0-.57,2.25v2.83h3.11v1.73h-3.11v10h1.72v1.73h-5.53V150.8h1.73v-10h-1.73v-1.73h1.73v-2.52a5.09,5.09,0,0,1,1.19-3.7,4.38,4.38,0,0,1,3.27-1.21,8.82,8.82,0,0,1,2.87.52Z"/><path class="cls-3" d="M235.07,140.05a9.77,9.77,0,0,1,4.87-1.35,4.93,4.93,0,0,1,3.3,1,3.9,3.9,0,0,1,1.16,3.13v8h1.73v1.73h-3.6l-.1-1.55-.07,0a5.19,5.19,0,0,1-4.08,1.94,3.82,3.82,0,0,1-2.85-1.06,3.59,3.59,0,0,1-1.06-2.68,3.51,3.51,0,0,1,1.89-3.25,11.31,11.31,0,0,1,5.48-1.07h.58v-2a2.33,2.33,0,0,0-.6-1.81,3,3,0,0,0-2-.54,6.47,6.47,0,0,0-2.84.56v1.86h-1.79Zm6.43,6.26a8.9,8.9,0,0,0-3.67.6,2.18,2.18,0,0,0-1.28,2.13,2,2,0,0,0,.62,1.61,2.5,2.5,0,0,0,1.59.5,4.57,4.57,0,0,0,3.56-1.7v-3.14Z"/><path class="cls-3" d="M247.51,150.8h1.73V133.52h-1.73v-1.73h3.8v19H253v1.73h-5.53Z"/><path class="cls-3" d="M264.79,149.94v1.87a7.54,7.54,0,0,1-4,1.07,5.26,5.26,0,0,1-4.27-1.84,7.68,7.68,0,0,1-1.54-5.11,7.93,7.93,0,0,1,1.63-5.31,5.11,5.11,0,0,1,4.08-1.92,3.92,3.92,0,0,1,3.24,1.59,7.2,7.2,0,0,1,1.25,4.53v1.07h-8.05a7.16,7.16,0,0,0,1,3.77,3.26,3.26,0,0,0,2.81,1.42A7.21,7.21,0,0,0,264.79,149.94Zm-1.73-5.71a4.65,4.65,0,0,0-.72-2.88,2.46,2.46,0,0,0-2-.92,2.78,2.78,0,0,0-2.14.95,4.77,4.77,0,0,0-1,2.85Z"/><path class="cls-3" d="M267.21,150.8h1.73v-10h-1.73v-1.73h3.7L271,141h.06a4.91,4.91,0,0,1,1.46-1.63,3.36,3.36,0,0,1,1.9-.52,3.74,3.74,0,0,1,.72.07v2.18a5.32,5.32,0,0,0-1.07-.1,3.18,3.18,0,0,0-1.74.46A4,4,0,0,0,271,143v7.84h2.07v1.73h-5.88Z"/><path class="cls-3" d="M288.23,152.7h-2l-4-11.92h-1.56v-1.73h5.19v1.73h-1.52l3,9.26h.07l3.11-9.26H289v-1.73h5.19v1.73h-1.73Z"/><path class="cls-3" d="M295.21,150.8h1.73v-10h-1.73v-1.73H299V150.8h1.72v1.73h-5.53Zm1.14-15.41a1.56,1.56,0,0,1,.4-1.13,1.51,1.51,0,0,1,1.09-.4,1.49,1.49,0,0,1,1.07.4,1.4,1.4,0,0,1,.42,1.06,1.44,1.44,0,0,1-.42,1.09,1.52,1.52,0,0,1-1.1.39,1.46,1.46,0,0,1-1.06-.39A1.42,1.42,0,0,1,296.35,135.39Z"/><path class="cls-3" d="M305.2,148.45a4.29,4.29,0,0,1,1.59,3.11q0,2.25-2.62,4.57l-1.08-1a3.81,3.81,0,0,0,1.46-2.73,3.27,3.27,0,0,0-1.32-2.24Z"/><path class="cls-3" d="M316,140.05a9.8,9.8,0,0,1,4.88-1.35,4.94,4.94,0,0,1,3.3,1,3.9,3.9,0,0,1,1.16,3.13v8H327v1.73h-3.59l-.1-1.55-.07,0a5.19,5.19,0,0,1-4.08,1.94,3.82,3.82,0,0,1-2.85-1.06,3.59,3.59,0,0,1-1.06-2.68,3.52,3.52,0,0,1,1.88-3.25,11.36,11.36,0,0,1,5.48-1.07h.59v-2a2.33,2.33,0,0,0-.6-1.81,3,3,0,0,0-2-.54,6.46,6.46,0,0,0-2.83.56v1.86H316Zm6.43,6.26a8.85,8.85,0,0,0-3.66.6,2.16,2.16,0,0,0-1.28,2.13,2,2,0,0,0,.62,1.61,2.5,2.5,0,0,0,1.59.5,4.59,4.59,0,0,0,3.56-1.7v-3.14Z"/><path class="cls-3" d="M333,152.88a3.38,3.38,0,0,1-2.35-.78,3,3,0,0,1-.86-2.3v-9h-1.73v-1.73h1.73v-3.11l2.07-.38v3.49H335v1.73h-3.11v8.67a1.78,1.78,0,0,0,.4,1.35,1.57,1.57,0,0,0,1.05.35,3.62,3.62,0,0,0,1.66-.42v1.7A4.44,4.44,0,0,1,333,152.88Z"/><path class="cls-3" d="M348.79,133.52v-1.73h4.15v19h1.73v1.73H351l-.1-1.17-.07,0a4.57,4.57,0,0,1-3.46,1.56,4.39,4.39,0,0,1-3.73-1.9,8.23,8.23,0,0,1-1.39-5,8.05,8.05,0,0,1,1.66-5.27,5.31,5.31,0,0,1,4.29-2,6,6,0,0,1,2.63.63l.07,0v-5.77Zm2.08,7.4a7.17,7.17,0,0,0-2.6-.49,3.38,3.38,0,0,0-2.92,1.3,6.88,6.88,0,0,0-1,4,7.72,7.72,0,0,0,.85,4,2.84,2.84,0,0,0,2.61,1.38,4,4,0,0,0,3-1.38Z"/><path class="cls-3" d="M365.38,140.78h-1.72v-1.73h3.8V150.8h1.73v1.73h-3.63l-.11-1.49h-.07a4.75,4.75,0,0,1-3.83,1.84,3.39,3.39,0,0,1-3.77-3.77v-8.33h-1.73v-1.73h3.8v9.71a2.35,2.35,0,0,0,.61,1.89,2.51,2.51,0,0,0,1.64.5,4,4,0,0,0,3.28-1.63Z"/><path class="cls-3" d="M377.14,140.05A9.77,9.77,0,0,1,382,138.7a4.93,4.93,0,0,1,3.3,1,3.9,3.9,0,0,1,1.16,3.13v8h1.73v1.73h-3.6l-.1-1.55-.07,0a5.19,5.19,0,0,1-4.08,1.94,3.82,3.82,0,0,1-2.85-1.06,3.62,3.62,0,0,1-1.05-2.68,3.5,3.5,0,0,1,1.88-3.25,11.33,11.33,0,0,1,5.48-1.07h.59v-2a2.33,2.33,0,0,0-.61-1.81,3,3,0,0,0-2-.54,6.47,6.47,0,0,0-2.84.56v1.86h-1.79Zm6.43,6.26a8.9,8.9,0,0,0-3.67.6,2.18,2.18,0,0,0-1.28,2.13,1.94,1.94,0,0,0,.63,1.61,2.46,2.46,0,0,0,1.59.5,4.6,4.6,0,0,0,3.56-1.7v-3.14Z"/><path class="cls-3" d="M389.58,150.8h1.73V133.52h-1.73v-1.73h3.8v19h1.73v1.73h-5.53Z"/><path class="cls-3" d="M401.44,152.88a3.37,3.37,0,0,1-2.35-.78,2.93,2.93,0,0,1-.87-2.3v-9h-1.73v-1.73h1.73v-3.11l2.08-.38v3.49h3.11v1.73H400.3v8.67a1.78,1.78,0,0,0,.39,1.35,1.57,1.57,0,0,0,1.06.35,3.68,3.68,0,0,0,1.66-.42v1.7A4.48,4.48,0,0,1,401.44,152.88Z"/><path class="cls-3" d="M405.14,150.8h1.72v-10h-1.72v-1.73h3.8V150.8h1.73v1.73h-5.53Zm1.14-15.41a1.55,1.55,0,0,1,.39-1.13,1.51,1.51,0,0,1,1.09-.4,1.49,1.49,0,0,1,1.07.4,1.4,1.4,0,0,1,.42,1.06,1.44,1.44,0,0,1-.42,1.09,1.52,1.52,0,0,1-1.1.39,1.46,1.46,0,0,1-1.06-.39A1.41,1.41,0,0,1,406.28,135.39Z"/><path class="cls-3" d="M419.31,133.52v-1.73h4.15v19h1.72v1.73h-3.69l-.11-1.17-.07,0a4.56,4.56,0,0,1-3.45,1.56,4.4,4.4,0,0,1-3.74-1.9,8.29,8.29,0,0,1-1.38-5,8,8,0,0,1,1.66-5.27,5.29,5.29,0,0,1,4.29-2,6,6,0,0,1,2.62.63l.07,0v-5.77Zm2.07,7.4a7.08,7.08,0,0,0-2.59-.49,3.37,3.37,0,0,0-2.92,1.3,6.8,6.8,0,0,0-.95,4,7.83,7.83,0,0,0,.84,4,2.87,2.87,0,0,0,2.62,1.38,4,4,0,0,0,3-1.38Z"/><path class="cls-3" d="M95.07,184.4H96.8V167.12H95.07v-1.73h3.8v19h1.38v1.73H95.07ZM102,172.65h5.19v1.73h-1.84l-3.94,4.18,4.53,5.84h1.59v1.73h-5.36V184.4h1.28l0-.07-4.26-5.56,4.05-4.39H102Z"/><path class="cls-3" d="M108.72,179.46a8,8,0,0,1,1.59-5.17,5,5,0,0,1,4.08-2,4.88,4.88,0,0,1,2.94.9l1.1-1.76,1.18.69-1.28,2a7.79,7.79,0,0,1,1.45,5,8.54,8.54,0,0,1-1.55,5.29,4.9,4.9,0,0,1-4.08,2,4.72,4.72,0,0,1-2.94-.94l-1.11,1.8-1.21-.69,1.32-2.11A8.11,8.11,0,0,1,108.72,179.46Zm2.18-.31a9.4,9.4,0,0,0,.55,3.46l4.88-7.78a3,3,0,0,0-2.11-.8,2.87,2.87,0,0,0-2.44,1.21A6.74,6.74,0,0,0,110.9,179.15Zm3.42,5.6a2.72,2.72,0,0,0,2.42-1.37,7.56,7.56,0,0,0,.86-4,9.07,9.07,0,0,0-.48-3.22l-4.87,7.74A2.67,2.67,0,0,0,114.32,184.75Z"/><path class="cls-3" d="M122,184.4h1.73v-10H122v-1.73h3.7l.1,1.94h.07a4.89,4.89,0,0,1,1.45-1.63,3.46,3.46,0,0,1,1.9-.52,3.85,3.85,0,0,1,.73.07v2.18a5.39,5.39,0,0,0-1.07-.1,3.24,3.24,0,0,0-1.75.46,4.09,4.09,0,0,0-1.33,1.51v7.84h2.08v1.73H122Z"/><path class="cls-3" d="M141.39,183.54v1.87a7.58,7.58,0,0,1-4,1.07,5.26,5.26,0,0,1-4.27-1.84,7.73,7.73,0,0,1-1.53-5.11,8,8,0,0,1,1.62-5.31,5.11,5.11,0,0,1,4.08-1.92,3.93,3.93,0,0,1,3.25,1.59,7.21,7.21,0,0,1,1.24,4.53v1.07h-8a7.16,7.16,0,0,0,.95,3.77,3.29,3.29,0,0,0,2.82,1.42A7.21,7.21,0,0,0,141.39,183.54Zm-1.73-5.71a4.58,4.58,0,0,0-.73-2.88,2.45,2.45,0,0,0-2-.92,2.79,2.79,0,0,0-2.14.95,4.83,4.83,0,0,0-1,2.85Z"/><path class="cls-3" d="M143.81,184.4h1.73v-10h-1.73v-1.73h3.7l.1,1.94h.07a4.89,4.89,0,0,1,1.45-1.63,3.44,3.44,0,0,1,1.9-.52,3.85,3.85,0,0,1,.73.07v2.18a5.46,5.46,0,0,0-1.07-.1,3.24,3.24,0,0,0-1.75.46,4,4,0,0,0-1.33,1.51v7.84h2.07v1.73h-5.87Z"/><path class="cls-3" d="M158.32,184.4h1.73v-10h-1.73v-1.73H162l.1,1.8h0a5.4,5.4,0,0,1,4.18-2.15,2.73,2.73,0,0,1,3,2.18h.07a5.53,5.53,0,0,1,4.28-2.18,3.06,3.06,0,0,1,2.53,1,4.32,4.32,0,0,1,.79,2.78v8.33h1.73v1.73h-5.19V184.4h1.39v-8.05a2.56,2.56,0,0,0-.49-1.85,1.85,1.85,0,0,0-1.34-.47,4.7,4.7,0,0,0-3.53,1.94v8.43h1.38v1.73H166.1V184.4h1.39v-8.05a2.68,2.68,0,0,0-.47-1.85,1.75,1.75,0,0,0-1.3-.47,4.56,4.56,0,0,0-3.59,2.15v8.22h1.38v1.73h-5.19Z"/><path class="cls-3" d="M190.13,183.54v1.87a7.58,7.58,0,0,1-4,1.07,5.26,5.26,0,0,1-4.27-1.84,7.73,7.73,0,0,1-1.53-5.11,8,8,0,0,1,1.62-5.31A5.11,5.11,0,0,1,186,172.3a3.93,3.93,0,0,1,3.25,1.59,7.21,7.21,0,0,1,1.24,4.53v1.07h-8.05a7.16,7.16,0,0,0,1,3.77,3.29,3.29,0,0,0,2.82,1.42A7.21,7.21,0,0,0,190.13,183.54Zm-1.73-5.71a4.58,4.58,0,0,0-.73-2.88,2.45,2.45,0,0,0-2-.92,2.79,2.79,0,0,0-2.14.95,4.83,4.83,0,0,0-1,2.85Z"/><path class="cls-3" d="M199.46,167.12v-1.73h4.15v19h1.73v1.73h-3.7l-.11-1.17-.06,0a4.58,4.58,0,0,1-3.46,1.56,4.39,4.39,0,0,1-3.73-1.9,8.23,8.23,0,0,1-1.39-5,8.05,8.05,0,0,1,1.66-5.27,5.31,5.31,0,0,1,4.29-2,6.07,6.07,0,0,1,2.63.63l.06,0v-5.77Zm2.07,7.4a7.08,7.08,0,0,0-2.59-.49,3.37,3.37,0,0,0-2.92,1.3,6.88,6.88,0,0,0-1,4,7.72,7.72,0,0,0,.85,4,2.84,2.84,0,0,0,2.61,1.38,4,4,0,0,0,3-1.38Z"/><path class="cls-3" d="M222.28,185.61a7.72,7.72,0,0,1-3.63.87,5.66,5.66,0,0,1-4.43-1.8,7.45,7.45,0,0,1-1.62-5.15,7.7,7.7,0,0,1,1.71-5.31,5.67,5.67,0,0,1,4.44-1.92,8,8,0,0,1,3.53.8v3.35h-1.84v-2.11a5.06,5.06,0,0,0-1.86-.31,3.37,3.37,0,0,0-2.87,1.23,6.4,6.4,0,0,0-.94,3.89,7,7,0,0,0,1,4.18,3.37,3.37,0,0,0,2.9,1.35,7.54,7.54,0,0,0,3.6-.93Z"/><path class="cls-3" d="M235.41,174.38,231,187a22.12,22.12,0,0,1-.88,2.21A8.16,8.16,0,0,1,229,191a3.94,3.94,0,0,1-1.44,1.13,4.74,4.74,0,0,1-2,.38,7.42,7.42,0,0,1-1.24-.11v-1.9a8.1,8.1,0,0,0,1.28.11,3.65,3.65,0,0,0,1-.13,2.19,2.19,0,0,0,.88-.48,4.15,4.15,0,0,0,.86-1.21,18,18,0,0,0,1-2.44h-.18l-4-11.92h-1.55v-1.73h5.18v1.73h-1.52l3,9.26h.07l3.15-9.26H232v-1.73h5.19v1.73Z"/><path class="cls-3" d="M238.18,184.4h1.73V167.12h-1.73v-1.73H242v19h1.38v1.73h-5.18Zm6.91-11.75h5.19v1.73h-1.84l-3.94,4.18L249,184.4h1.59v1.73h-5.36V184.4h1.28l0-.07-4.25-5.56,4-4.39h-1.28Z"/><path class="cls-3" d="M261.68,183.54v1.87a7.54,7.54,0,0,1-4,1.07,5.25,5.25,0,0,1-4.27-1.84,7.68,7.68,0,0,1-1.54-5.11,7.93,7.93,0,0,1,1.63-5.31,5.11,5.11,0,0,1,4.08-1.92,3.92,3.92,0,0,1,3.24,1.59,7.2,7.2,0,0,1,1.25,4.53v1.07H254a7.25,7.25,0,0,0,1,3.77,3.26,3.26,0,0,0,2.81,1.42A7.21,7.21,0,0,0,261.68,183.54ZM260,177.83a4.65,4.65,0,0,0-.72-2.88,2.48,2.48,0,0,0-2-.92,2.78,2.78,0,0,0-2.14.95,4.77,4.77,0,0,0-1,2.85Z"/><path class="cls-3" d="M264.1,184.4h1.73V167.12H264.1v-1.73h3.81v19h1.72v1.73H264.1Z"/><path class="cls-3" d="M272.74,167.12H271v-1.73h3.8v8.85h0a5.77,5.77,0,0,1,4.25-1.94,3,3,0,0,1,2.53,1,4.32,4.32,0,0,1,.79,2.78v8.33h1.73v1.73H279V184.4h1.38v-8.05a2.62,2.62,0,0,0-.48-1.85,1.9,1.9,0,0,0-1.35-.47,4.88,4.88,0,0,0-3.7,2v8.4h1.38v1.73H271V184.4h1.72Z"/><path class="cls-3" d="M288.47,191.28a3.06,3.06,0,0,1-2.66,1.14,6.33,6.33,0,0,1-1-.07v-1.69a5.54,5.54,0,0,0,.59,0,1.64,1.64,0,0,0,1.45-.55,3.63,3.63,0,0,0,.38-2V174.38h-1.73v-1.73h3.81v15.18A5.57,5.57,0,0,1,288.47,191.28ZM286.67,169a1.56,1.56,0,0,1,.4-1.13,1.51,1.51,0,0,1,1.09-.4,1.49,1.49,0,0,1,1.07.4,1.4,1.4,0,0,1,.42,1.06,1.44,1.44,0,0,1-.42,1.09,1.52,1.52,0,0,1-1.1.39,1.46,1.46,0,0,1-1.06-.39A1.42,1.42,0,0,1,286.67,169Z"/><path class="cls-3" d="M302.13,183.54v1.87a7.58,7.58,0,0,1-4.05,1.07,5.26,5.26,0,0,1-4.27-1.84,7.74,7.74,0,0,1-1.54-5.11,8,8,0,0,1,1.63-5.31A5.11,5.11,0,0,1,298,172.3a3.94,3.94,0,0,1,3.25,1.59,7.21,7.21,0,0,1,1.24,4.53v1.07h-8.05a7.16,7.16,0,0,0,.95,3.77,3.27,3.27,0,0,0,2.82,1.42A7.24,7.24,0,0,0,302.13,183.54Zm-1.73-5.71a4.58,4.58,0,0,0-.73-2.88,2.45,2.45,0,0,0-2-.92,2.78,2.78,0,0,0-2.14.95,4.83,4.83,0,0,0-1,2.85Z"/><path class="cls-3" d="M304.55,184.4h1.72V167.12h-1.72v-1.73h3.8v19h1.73v1.73h-5.53Z"/><path class="cls-3" d="M311.8,184.4h1.73v-10H311.8v-1.73h3.67l.1,1.8h0a5.4,5.4,0,0,1,4.18-2.15,2.73,2.73,0,0,1,3,2.18h.07a5.53,5.53,0,0,1,4.28-2.18,3.06,3.06,0,0,1,2.53,1,4.32,4.32,0,0,1,.79,2.78v8.33h1.73v1.73H327V184.4h1.39v-8.05a2.56,2.56,0,0,0-.49-1.85,1.85,1.85,0,0,0-1.34-.47A4.7,4.7,0,0,0,323,176v8.43h1.38v1.73h-4.84V184.4H321v-8.05a2.68,2.68,0,0,0-.47-1.85,1.75,1.75,0,0,0-1.3-.47,4.56,4.56,0,0,0-3.59,2.15v8.22H317v1.73H311.8Z"/><path class="cls-3" d="M334.27,184.78a1.89,1.89,0,0,1,.47-1.33,1.84,1.84,0,0,1,2.52,0,1.7,1.7,0,0,1,.47,1.19,1.83,1.83,0,0,1-.48,1.35,1.77,1.77,0,0,1-1.32.49,1.56,1.56,0,0,1-1.21-.49A1.69,1.69,0,0,1,334.27,184.78Z"/></svg>
