<svg id="Layer_1" data-name="Layer 1" xmlns="http://www.w3.org/2000/svg" width="169.76mm" height="167.96mm" viewBox="0 0 481.2 476.12"><defs><style>.cls-1{fill:#eaeaea;}</style></defs><title>tilbage_knap</title><circle class="cls-1" cx="237.31" cy="237.31" r="226.87"/><path d="M136,257.8h6.31V218.14h-9.91v7.21h-4.78V213.64h34.79v11.71h-4.78v-7.21h-9.91V257.8h6.31v4.5H136Z"/><path d="M166.67,257.8h4.51V231.66h-4.51v-4.51h9.92V257.8h4.5v4.5H166.67Zm3-40.2a4,4,0,0,1,1-2.93,3.84,3.84,0,0,1,2.84-1,3.89,3.89,0,0,1,2.8,1,3.64,3.64,0,0,1,1.08,2.75,3.75,3.75,0,0,1-1.08,2.84,4,4,0,0,1-2.89,1,3.73,3.73,0,0,1-2.75-1A3.6,3.6,0,0,1,169.65,217.6Z"/><path d="M185.6,257.8h4.51V212.73H185.6v-4.5h9.91V257.8H200v4.5H185.6Z"/><path d="M214,229.41l.18.09a13.22,13.22,0,0,1,8.92-3.25,11.09,11.09,0,0,1,9.42,5q3.56,4.95,3.56,12.71,0,9-4.56,14.15T219,263.2a34,34,0,0,1-10.45-1.71V212.73h-4.51v-4.5H214Zm0,28.75a27,27,0,0,0,5.31.54q5.41,0,8.25-3.34t2.84-10.63q0-6.49-2.21-10.23a7.28,7.28,0,0,0-6.71-3.74,11.39,11.39,0,0,0-7.48,3Z"/><path d="M245.08,229.77a25.46,25.46,0,0,1,12.71-3.52q5.58,0,8.6,2.57t3,8.16V257.8h4.51v4.5h-9.38l-.27-4.05-.18-.09a13.48,13.48,0,0,1-10.63,5,10,10,0,0,1-7.44-2.75,9.47,9.47,0,0,1-2.75-7,9.12,9.12,0,0,1,4.92-8.47q4.91-2.79,14.28-2.8H264v-5.31q0-3.33-1.57-4.73c-1.06-.94-2.81-1.4-5.28-1.4a16.93,16.93,0,0,0-7.39,1.44v4.87h-4.68Zm16.76,16.31q-6.22,0-9.55,1.58A5.62,5.62,0,0,0,249,253.2a5,5,0,0,0,1.63,4.19,6.39,6.39,0,0,0,4.14,1.31,11.91,11.91,0,0,0,9.28-4.42v-8.2Z"/><path d="M278.42,239a12.47,12.47,0,0,1,3.52-9.15,12.11,12.11,0,0,1,9-3.56,13.57,13.57,0,0,1,3.61.45,10.84,10.84,0,0,0,3.24.45h8.56v4.33h-5.14v.09a13,13,0,0,1,1.72,6.58,13.53,13.53,0,0,1-3.47,9.64,11.75,11.75,0,0,1-9,3.7,13.17,13.17,0,0,1-4.51-.72,5.93,5.93,0,0,0-1.71,3.78,2.16,2.16,0,0,0,.72,1.71,3.37,3.37,0,0,0,2.26.63h6.3c4,0,7,.82,9.15,2.44s3.2,4,3.2,7.21a11.12,11.12,0,0,1-4.69,9.37,19.14,19.14,0,0,1-11.8,3.52,14.81,14.81,0,0,1-9.28-2.71,8.36,8.36,0,0,1-3.52-6.94q0-4.86,4.87-8.92a5.82,5.82,0,0,1-2.17-4.69c0-2.4,1.3-4.68,3.88-6.85Q278.41,245.63,278.42,239Zm6.4,23.34a8.52,8.52,0,0,0-2.79,6.31,6.11,6.11,0,0,0,2,4.82q2,1.76,6.13,1.76,4.86,0,7.61-2a6.25,6.25,0,0,0,2.75-5.27,4.92,4.92,0,0,0-1.84-4.19,8.31,8.31,0,0,0-5.1-1.4ZM284,238.51a10.44,10.44,0,0,0,1.71,6.35,6,6,0,0,0,5.14,2.3,5.81,5.81,0,0,0,4.87-2.07c1.08-1.38,1.62-3.49,1.62-6.31s-.56-4.79-1.67-6.08a6.33,6.33,0,0,0-5.09-1.94,6.2,6.2,0,0,0-4.91,1.89C284.57,233.91,284,235.87,284,238.51Z"/><path d="M336.1,255.54v4.87a19.61,19.61,0,0,1-10.54,2.79q-7.12,0-11.13-4.77t-4-13.34q0-8.84,4.23-13.84a13.38,13.38,0,0,1,10.64-5,10.27,10.27,0,0,1,8.47,4.15q3.24,4.14,3.24,11.8V245H316q.18,6.3,2.48,9.82c1.54,2.34,4,3.58,7.35,3.7A18.73,18.73,0,0,0,336.1,255.54Zm-4.5-14.87c0-3.42-.64-5.93-1.9-7.52a6.39,6.39,0,0,0-5.31-2.39,7.21,7.21,0,0,0-5.59,2.48c-1.5,1.65-2.41,4.13-2.71,7.43Z"/></svg>
